<?xml version="1.0" encoding="UTF-8" standalone="no"?>
<!-- Created with Inkscape (http://www.inkscape.org/) -->

<svg
   version="1.1"
   id="svg606"
   width="454.57333"
   height="701.33331"
   viewBox="0 0 454.57332 701.3333"
   sodipodi:docname="2026_FIFA_World_Cup_emblem_(without_trophy)-authentic colors-2-def.svg"
   inkscape:version="1.4.2 (ebf0e940d0, 2025-05-08)"
   xmlns:inkscape="http://www.inkscape.org/namespaces/inkscape"
   xmlns:sodipodi="http://sodipodi.sourceforge.net/DTD/sodipodi-0.dtd"
   xmlns="http://www.w3.org/2000/svg"
   xmlns:svg="http://www.w3.org/2000/svg">
  <sodipodi:namedview
     id="namedview1"
     pagecolor="#ffffff"
     bordercolor="#000000"
     borderopacity="0.25"
     inkscape:showpageshadow="2"
     inkscape:pageopacity="0.0"
     inkscape:pagecheckerboard="0"
     inkscape:deskcolor="#d1d1d1"
     showguides="false"
     inkscape:zoom="1"
     inkscape:cx="195"
     inkscape:cy="362.5"
     inkscape:window-width="1181"
     inkscape:window-height="1072"
     inkscape:window-x="0"
     inkscape:window-y="0"
     inkscape:window-maximized="0"
     inkscape:current-layer="g1" />
  <defs
     id="defs610">
    <inkscape:path-effect
       effect="lattice2"
       gridpoint0="-16.51747,-85.479682"
       gridpoint1="197.12,-85.479682"
       gridpoint2="-16.51747,400.56462"
       gridpoint3="196.81985,400.56462"
       gridpoint4="36.816861,-85.479682"
       gridpoint5="143.48552,-85.479682"
       gridpoint6="36.816861,400.56462"
       gridpoint7="143.48552,400.56462"
       gridpoint8x9="90.151191,-85.479682"
       gridpoint10x11="90.151191,400.56462"
       gridpoint12="-16.51747,36.031392"
       gridpoint13="196.81985,36.031392"
       gridpoint14="-16.51747,279.05354"
       gridpoint15="196.81985,279.05354"
       gridpoint16="36.816861,36.031392"
       gridpoint17="143.48552,36.031392"
       gridpoint18="36.816861,279.05354"
       gridpoint19="143.48552,279.05354"
       gridpoint20x21="90.151191,36.031392"
       gridpoint22x23="90.151191,279.05354"
       gridpoint24x26="-16.51747,157.54247"
       gridpoint25x27="196.81985,157.54247"
       gridpoint28x30="32.01998,147.22115"
       gridpoint29x31="143.48552,144.12476"
       gridpoint32x33x34x35="91.110567,144.12476"
       id="path-effect1"
       is_visible="true"
       lpeversion="1"
       horizontal_mirror="false"
       vertical_mirror="false"
       perimetral="false"
       live_update="true" />
    <clipPath
       clipPathUnits="userSpaceOnUse"
       id="clipPath622">
      <path
         d="M 0,295.739 H 228.526 V 0 H 0 Z"
         id="path620" />
    </clipPath>
  </defs>
  <g
     id="g614"
     transform="matrix(2.6666666,0,0,-2.6666666,-77.413598,744.98451)">
    <g
       id="g616">
      <g
         id="g618"
         clip-path="url(#clipPath622)">
        <g
           id="g624"
           transform="translate(156.8791,144.2182)"
           inkscape:label="2026">
          <path
             d="m 0,0 h -85.232 c -23.538,0 -42.617,-19.08 -42.617,-42.616 v -42.616 c 0,-23.537 19.079,-42.617 42.617,-42.617 H 0 c 23.537,0 42.616,19.08 42.616,42.617 0,23.536 -19.079,42.616 -42.616,42.616 H 42.616 C 42.616,-19.08 23.537,0 0,0 m 0,135.151 h -85.232 c -23.538,0 -42.617,-19.08 -42.617,-42.616 h 42.617 c -23.538,0 -42.617,-19.079 -42.617,-42.616 V 7.302 H 42.616 V 49.919 H 0 c 23.537,0 42.616,19.08 42.616,42.616 0,23.536 -19.079,42.616 -42.616,42.616"
             style="fill:#000000;fill-opacity:1;fill-rule:nonzero;stroke:none"
             id="path626"
             inkscape:label="2026"
             sodipodi:nodetypes="cssssssccccsccsccccsc" />
        </g>
        <g
           id="g628"
           transform="translate(79.2931,66.1489)"
           inkscape:label="F">
          <path
             d="m 0,0 v -24.857 h 7.68 v 8.977 h 5.528 l 1.966,5.432 H 7.68 v 5.032 h 9.308 L 18.947,0 Z"
             style="fill:#ffffff;fill-opacity:1;fill-rule:nonzero;stroke:none"
             id="path630" />
        </g>
        <g
           id="g632"
           transform="translate(100.589,66.1489)"
           inkscape:label="I">
          <path
             d="M 0,0 0.001,-24.857 H 7.68 V 0 Z"
             style="fill:#ffffff;fill-opacity:1;fill-rule:nonzero;stroke:none"
             id="path634" />
        </g>
        <g
           id="g636"
           transform="translate(113.5534,66.1489)"
           inkscape:label="F">
          <path
             d="m 0,0 v -24.857 h 7.68 v 8.977 h 5.528 l 1.966,5.432 H 7.68 v 5.032 h 9.308 L 18.947,0 Z"
             style="fill:#ffffff;fill-opacity:1;fill-rule:nonzero;stroke:none"
             id="path638" />
        </g>
        <g
           id="g640"
           transform="translate(141.3898,59.7612)">
          <path
             d="m 0,0 3.069,-10.354 h -6.037 z m -3.871,6.388 -8.989,-24.859 h 7.561 l 0.96,3.34 H 4.34 l 1.003,-3.34 h 7.756 L 4.113,6.388 Z"
             style="fill:#ffffff;fill-opacity:1;fill-rule:nonzero;stroke:none"
             id="path642" />
        </g>
        <g
           id="g644"
           transform="translate(194.9572,20.935)">
          <path
             d="M 0,0 H -0.722 V -4.565 H 0 v 1.818 h 3.662 v 0.922 H 0 Z"
             style="fill:#000000;fill-opacity:1;fill-rule:nonzero;stroke:none"
             id="path646" />
        </g>
        <g
           id="g648"
           transform="translate(198.6193,27.52)"
           inkscape:label="M">
          <path
             d="m 0,0 h -3.984 c -0.125,0 -0.223,-0.033 -0.293,-0.1 -0.072,-0.067 -0.107,-0.163 -0.107,-0.287 v -1.018 l 3.47,-1.61 -3.47,-1.614 v -1.013 c 0,-0.121 0.035,-0.215 0.107,-0.287 0.07,-0.07 0.168,-0.106 0.293,-0.106 H 0 v 0.896 H -3.661 L 0,-3.462 v 0.883 l -3.661,1.683 H 0 Z"
             style="fill:#000000;fill-opacity:1;fill-rule:nonzero;stroke:none"
             id="path650" />
        </g>
      </g>
    </g>
    <g
       id="g652">
      <g
         id="g654"
         transform="matrix(69.543872,0,0,170.87421,81.623817,80.263971)"
         inkscape:label="g654" />
    </g>
  </g>
  <g
     id="g1"
     transform="matrix(1.0423441,0,0,0.9688687,135.28292,144.40091)"
     inkscape:path-effect="#path-effect1">
    <g
       id="g100501"
       transform="matrix(1.0671879,0,0,0.97368312,-17.690199,-86.276945)">
      <path
         style="display:none;fill:#f6e79c"
         d="m 27.321888,498.74922 c 0.29464,-0.68838 2.538878,-5.75394 4.97395,-11.34149 13.338106,-30.6058 22.644308,-66.63349 27.523806,-103.73704 1.155401,-8.78563 1.605484,-24.51661 1.445892,-39.8275 -0.159854,-15.33614 -0.92595,-30.12672 -2.244067,-37.57006 C 56.759834,293.50179 54.26375,282.89592 50.162589,270.33109 45.89599,257.2594 40.486002,243.72055 31.783782,222.98436 25.484716,207.97456 19.673661,193.165 17.544414,186.92323 8.2972013,159.81546 2.7654633,132.35197 1.0372794,108.01087 -0.36976792,88.192924 1.7608639,74.696742 9.5161301,57.798112 18.59538,38.014539 33.425139,22.84512 51.325181,12.961705 69.176265,3.1053228 90.019876,-1.5011897 111.13432,0.94908743 132.96934,3.4829849 152.66743,12.018179 167.80528,24.893824 c 15.29914,13.012842 26.3077,30.776362 31.55049,52.205649 1.76801,7.226571 1.97581,10.635348 1.59032,25.828887 -0.31531,12.42768 -1.15846,22.48116 -3.10971,33.17161 -1.94497,10.65604 -5.01914,22.07185 -9.77265,36.76622 -2.24119,6.92811 -6.46634,18.0109 -11.74967,30.90366 -5.12199,12.49907 -11.37135,27.01721 -16.83129,39.46505 -10.81785,24.66302 -16.87509,47.51477 -19.87828,73.62783 -0.89843,7.81201 -1.05427,21.06008 -0.62784,34.71751 0.4267,13.66583 1.43293,27.66671 2.85247,36.73889 2.59433,16.58016 6.31405,33.91522 10.82051,50.3246 4.53442,16.51114 9.76272,31.73845 15.53799,45.18024 3.26608,7.60172 6.18129,14.23664 6.48115,14.92513 C 175.10219,499.74404 159.99561,500 101,500 42.009654,500 26.896083,499.7439 27.32187,498.7495"
         id="path100507"
         inkscape:original-d="m 27.321955,498.75 c 0.294763,-0.6875 2.540023,-5.75 4.989466,-11.25 13.314919,-29.89742 23.251039,-63.12425 28.408717,-95 2.492159,-15.40218 2.469666,-55.64158 -0.03913,-70 C 56.365735,297.80267 51.098455,280.44392 33.523432,233 27.309337,216.225 20.600829,197.45013 18.615635,191.27807 8.7090907,160.47813 2.8486821,132.71985 1.0347223,108.00469 -0.43002932,88.04749 1.8397425,74.862967 9.6176816,58.148482 27.731555,19.222481 68.802647,-3.954236 110.97977,0.94911552 154.83908,6.0480312 188.69406,35.352759 199.11991,77.24284 c 1.76976,7.110739 1.97929,10.472863 1.6028,25.71863 -0.61652,24.96511 -3.34378,40.5774 -12.81427,73.35551 -4.32036,14.95311 -17.35682,52.46337 -28.3106,81.45912 -10.66156,28.22218 -16.64339,51.22023 -19.64888,75.54309 -1.80055,14.57152 -0.73167,47.84155 2.04591,63.68081 5.06935,28.90821 14.69062,60.87224 26.18728,87 3.26712,7.425 6.18583,14.0625 6.48602,14.75 C 175.10205,499.74367 159.99561,500 101,500 42.009654,500 26.895959,499.74359 27.321955,498.75 Z" />
      <path
         style="display:inline;fill:#f6dc32;fill-opacity:1"
         d="m 30.970477,491.50852 c 7.168555,-15.8087 13.391072,-33.79601 18.550638,-53.5378 5.099735,-19.51287 8.976877,-40.10097 11.172076,-58.90496 2.203907,-18.87857 1.832854,-51.86103 -0.716506,-68.67667 -1.956882,-12.90768 -4.490398,-24.30241 -8.835637,-37.94305 -4.520875,-14.192 -10.328783,-28.8681 -19.468011,-50.65089 C 22.494516,199.91871 16.711941,184.21056 12.345472,168.99706 8.052585,154.03994 5.3366391,140.16392 2.878746,123.27324 0.05459758,103.86565 0.52762827,86.483834 4.743723,71.111768 8.9767377,55.678011 16.932286,42.339601 28.903132,30.472599 42.824046,16.672447 58.26453,8.0752299 76.777387,3.4210913 92.717269,-0.58620095 112.97295,0.07515422 130.67965,5.1260824 c 12.43144,3.5461323 24.58323,10.0475896 34.93905,18.4553006 10.42585,8.464566 19.11589,18.923733 24.96733,30.614724 10.90985,21.797565 13.1044,42.212518 8.09844,73.531923 -2.49221,15.59228 -5.78218,29.73622 -11.3368,46.3305 -6.05143,18.07851 -12.94898,34.17224 -25.19168,62.32225 -6.60246,15.18125 -11.05667,26.81527 -14.31372,37.46054 -3.24785,10.61523 -5.332,20.33772 -7.15838,32.03812 -3.1045,19.88847 -3.51364,41.83409 -1.20255,65.60376 2.30213,23.67755 7.33282,49.32352 15.04604,75.40002 2.00717,6.78573 5.47158,16.83441 9.05916,26.37275 3.56246,9.47157 7.07513,17.98728 9.06538,21.98016 0.79415,1.59324 2.38177,4.76387 2.38177,4.76387 -24.66195,0 -73.97106,0 -73.97106,0 -24.661953,0 -73.971064,0 -73.971064,0 1.297201,-2.82068 2.586798,-5.64201 3.878911,-8.49148 z"
         id="path100506"
         inkscape:original-d="M 30.97735,491.54926 C 45.238334,460.5347 56.865921,421.45696 61.63967,388.5 64.03152,371.98717 64.011378,342.61473 61.59715,326.5 57.918064,301.94239 51.863433,281.59305 33.407167,231.75473 14.54682,180.82524 8.1775515,158.17434 2.966724,123.5 -2.9845037,83.898827 5.1821863,54.79747 28.950947,30.907267 42.896086,16.890878 58.083278,8.1467113 76.672413,3.4311905 92.51522,-0.58766736 112.8879,0.06415941 130.5,5.153412 c 24.92288,7.201799 48.20247,26.468456 59.85024,49.533268 10.92194,21.627536 13.09348,41.253699 8.12771,73.45744 -4.98091,32.30189 -13.02438,59.34639 -36.24191,121.85588 -13.03456,35.09349 -17.54909,50.6466 -21.20438,73.0518 -6.17871,37.87246 -1.85922,78.15831 13.51233,126.02325 3.91017,12.17575 14.15494,38.30288 18.10577,46.17495 l 2.38393,4.75 H 101.06263 27.091566 Z" />
      <path
         style="fill:#f6dc34;fill-opacity:0"
         d="m 29.432374,495.11642 c 3.71624,-7.38795 8.301181,-18.96947 12.711488,-32.26201 4.418853,-13.3183 8.490565,-27.83834 11.301377,-40.42372 7.417852,-33.21334 10.047748,-60.21058 8.847961,-86.68923 -0.8321,-18.364 -2.616839,-32.99 -6.922019,-49.59462 C 50.946455,269.08114 44.377849,251.62416 33.722074,226.22858 23.660199,202.24842 17.733637,186.53208 13.173925,170.95631 8.7162761,155.72919 5.8781471,141.53305 2.7555349,122.29192 2.0605286,118.00939 1.5011606,107.47435 1.524085,98.962321 1.5588349,86.059411 1.9325968,82.006936 3.8089326,74.840562 8.3535448,57.48312 17.060683,42.373061 29.093393,30.356747 41.035341,18.43107 56.314245,9.5115627 73.599539,4.4427374 80.341351,2.4657351 85.682973,1.6581354 94.77339,1.2648277 c 24.04423,-1.04030186 43.93569,4.3828772 63.60563,17.0915743 14.64247,9.460467 29.51522,27.769052 35.96517,44.653495 7.3645,19.278507 8.51021,36.351296 4.321,63.472423 -2.19807,14.23039 -5.2825,27.75721 -10.12166,42.88221 -5.0237,15.70178 -11.28834,31.3053 -20.80112,53.14592 -7.89181,18.11899 -12.33547,28.8968 -15.42321,37.19106 -3.01393,8.096 -4.66369,13.67114 -6.61853,21.12252 -6.30782,24.04392 -7.53778,34.69292 -7.49203,62.02368 0.0246,14.69053 0.58924,28.20007 1.44132,34.50162 4.37657,32.36707 11.14994,61.1899 22.12481,91.42469 3.6063,9.93503 7.4569,19.59295 8.72648,22.173 1.23075,2.50112 2.55737,5.56683 2.93769,6.79993 0.23199,0.75253 0.69584,2.25305 0.69584,2.25305 -24.53299,0 -73.58424,0 -73.58424,0 -24.532983,0 -73.584232,0 -73.584232,0 0.823262,-1.62439 1.644464,-3.25023 2.466066,-4.88358 z"
         id="path100505"
         sodipodi:nodetypes="ssssssssssssssssssscccs"
         inkscape:original-d="M 29.434471,495.12932 C 36.821889,480.55095 48.134207,448.99123 53.943021,426.75404 61.697245,397.06946 64.615126,374.05482 63.674182,350 62.365963,316.55596 57.078037,295.33591 35.51517,237 14.966007,181.40655 9.4485419,162.07431 2.8366108,122.5 2.1014749,118.1 1.5176901,107.525 1.5393113,99 1.5720882,86.076434 1.9589903,82.087117 3.8669407,75 13.049914,40.889678 38.869518,14.734428 73.5,4.4617363 80.223191,2.4673875 85.571649,1.6587203 94.64192,1.265156 118.72233,0.22029311 138.447,5.6156243 158.17049,18.64226 c 14.53308,9.598563 29.58358,28.346289 35.93711,44.765215 7.37481,19.058143 8.509,35.610385 4.3504,63.488915 -4.3854,29.39889 -12.24292,56.80834 -30.70361,107.10361 -15.52075,42.28556 -17.8205,49.10497 -21.75173,64.5 -6.23104,24.40125 -7.46718,34.06116 -7.48606,58.5 -0.0101,13.12738 0.51269,25.00482 1.34256,30.5 4.26867,28.26603 10.93559,53.21494 21.91226,82 3.56546,9.35 7.49221,19.025 8.72611,21.5 1.2339,2.475 2.55706,5.5125 2.94035,6.75 l 0.6969,2.25 H 100.55054 26.966308 Z" />
      <path
         style="fill:#f5c712;fill-opacity:1"
         d="m 28.000013,499.54476 c -4e-6,-0.25045 1.857812,-4.63364 4.116923,-9.81156 3.978839,-9.11954 9.01986,-22.62915 14.257906,-38.98631 1.540462,-4.8105 4.078596,-14.98078 6.560123,-26.11029 2.459147,-11.02915 4.770421,-22.5848 5.767507,-29.07176 3.814427,-24.8163 4.648832,-48.21585 2.597574,-70.57192 C 59.238549,302.52526 54.308099,281.36575 46.667025,260.34395 44.250418,253.69547 38.712091,237.72661 31.761801,221.01779 23.782107,201.83424 18.662555,189.60811 14.612543,177.84087 10.659319,166.35485 8.0172687,156.05317 5.6235791,142.1554 4.4416438,135.29307 3.9987646,129.11293 4.2865595,128.77033 c 0.2884548,-0.34339 0.5236123,-0.0875 0.5223063,0.56806 -0.0064,3.21114 6.4269532,16.91727 10.7681382,22.51765 5.465432,7.05072 13.848232,14.6445 15.283443,14.20964 0.475131,-0.14396 2.213941,-1.97338 3.865885,-4.03993 4.807662,-6.01426 8.622851,-8.5398 15.747201,-10.36363 13.941463,-3.56904 23.957405,4.34366 22.77905,16.82184 -0.208666,2.20967 -0.306206,4.01651 -0.217844,3.9999 0.638486,-0.12004 5.578522,-9.67604 9.611207,-18.20926 12.751398,-26.98217 30.188894,-45.25337 53.676014,-59.046237 6.90107,-4.052668 15.69526,-8.522764 24.36527,-12.722869 8.31691,-4.029051 17.62819,-8.35005 23.82607,-10.832339 12.43012,-4.97834 11.69095,-5.608695 14.33541,5.642795 2.95589,12.576591 2.94146,28.96103 -0.0722,48.48241 -2.24898,14.56812 -5.33164,28.19361 -10.17013,43.36915 -5.02346,15.75575 -11.28997,31.36172 -20.86398,53.34292 -7.89181,18.11899 -12.33547,28.8968 -15.42321,37.19107 -3.01393,8.09599 -4.66369,13.67114 -6.61853,21.12252 -6.37827,24.31248 -7.55594,34.63772 -7.47931,62.58494 0.0396,14.53958 0.61044,28.51395 1.38502,33.93473 3.24198,22.68879 6.38488,38.64686 12.54659,62.31205 1.33222,5.11663 4.78517,15.55773 8.54369,25.9717 3.7818,10.47848 7.65836,20.34664 9.97604,25.49771 1.95424,4.3433 4.33899,8.18548 4.33887,8.43014 -1.2e-4,0.24464 -33.86157,0.44471 -74.01157,0.44471 -40.15,0 -72.999984,-0.20481 -72.999965,-0.45514 l 4e-5,0"
         id="path100504"
         sodipodi:nodetypes="sssssssssssssssssssssscsssssss"
         inkscape:original-d="m 28,499.54486 c 0,-0.25033 1.857256,-4.63783 4.127236,-9.75 C 36.078105,480.8972 41.271881,467.51854 46.605613,452.5 49.707388,443.76613 57.359554,414.33896 59.477466,403 67.61872,359.41306 63.785442,321.35722 48.607682,275.5 46.605262,269.45 40.266893,249.425 33.49642,231 17.174225,186.58118 11.017784,171.8418 5.8856123,142.89735 4.6242221,135.78335 4.1490443,129.51762 4.4509964,129.21567 4.7529484,128.91372 5,129.20618 5,129.86559 c 0,3.22833 6.802803,18.20565 11.36326,25.0178 C 22.044349,163.36948 30.888591,174 32.267648,174 c 0.487409,0 2.249337,-1.36314 3.915394,-3.0292 4.892747,-4.89274 8.627001,-6.40376 15.816958,-6.40012 13.92541,0.007 23.907726,10.54827 22.829317,24.1075 -0.189051,2.377 -0.272435,4.32182 -0.185299,4.32182 0.668183,0 5.399489,-9.37949 9.331979,-18.5 12.171908,-28.22997 29.395973,-51.16842 52.448043,-69.84862 13.64599,-11.058004 34.78762,-25.033503 47.8763,-31.64824 12.37451,-6.25381 11.69503,-6.467287 14.31331,4.49686 2.96401,12.411906 2.94908,28.61823 -0.0449,48.69094 -4.48756,30.08663 -12.23253,57.18364 -30.8144,107.80906 -15.52075,42.28556 -17.8205,49.10497 -21.75173,64.5 -6.30063,24.6738 -7.48484,34.02095 -7.47481,59 0.005,12.98727 0.53292,25.27736 1.28812,30 3.19808,19.99921 6.21026,33.39664 12.36578,55 2.59694,9.11422 13.94214,38.70215 18.48728,48.67581 1.95564,4.29137 4.34232,8.13506 4.34232,8.37959 0,0.24453 -33.86135,0.4446 -74.01135,0.4446 -40.15,0 -73,-0.20481 -73,-0.45514 z" />
      <path
         style="fill:#ddc327;fill-opacity:1"
         d="m 39.90949,470.06923 c -0.001,-0.18391 0.702551,-2.53302 1.56113,-5.24506 0.520456,-1.64399 1.559176,-4.95166 1.559176,-4.95166 10.686563,-0.31373 22.966325,-0.64914 36.085211,-0.84633 12.040584,-0.18098 21.676853,-0.18151 21.676853,-0.18151 11.0302,-0.0157 22.70295,0.0865 36.13582,0.36526 12.0417,0.24987 21.66829,0.55168 21.66829,0.55168 0.44859,1.33602 1.34511,3.99294 1.34511,3.99294 0.75426,2.23166 1.53959,4.51623 1.81061,5.28013 0.36978,1.04222 -12.17761,0.68514 -60.70107,0.72106 -33.647804,0.0249 -61.140088,0.4974 -61.14113,0.31349 z m 11.679554,-38.94306 c -0.0025,-0.25636 1.082848,-5.11039 2.409266,-10.86558 3.303143,-14.33199 6.680228,-37.20609 7.990275,-53.73325 0.998457,-12.59625 0.457558,-39.44489 -1.031333,-52.54701 -0.972062,-8.55408 2.157542,5.76589 5.627394,26.5496 2.495298,14.94632 4.271717,32.07565 5.069948,46.55245 0.798569,14.48292 0.610106,26.13652 -0.798069,30.46959 -0.242754,0.74697 0.780837,1.07923 5.880947,1.05623 5.100111,-0.023 14.281861,-0.51021 30.363838,-0.36597 20.25779,0.18171 36.81161,1.32553 36.81088,0.95228 -7.2e-4,-0.37325 -2.25956,-3.58371 -5.0246,-7.17136 -9.52802,-12.36267 -18.48619,-30.4456 -26.69342,-52.90003 -8.13394,-22.2539 -15.447187,-48.62038 -21.191778,-75.88662 -2.607414,-12.37589 -2.904024,-15.64652 -2.979313,-35.60725 -0.06958,-18.44751 0.276925,-23.18441 2.307336,-33.02668 4.148495,-20.10951 12.397165,-40.31797 23.767485,-58.16649 11.46621,-17.99906 25.45493,-32.70585 41.56247,-45.98733 3.0014,-2.4748 5.27401,-4.73593 5.05613,-4.97122 -0.21787,-0.2353 -3.16841,0.57123 -6.56246,1.77485 -8.80996,3.12425 -19.44225,8.41103 -30.87312,16.04686 -11.47079,7.66248 -24.890407,18.43486 -39.372933,34.15372 -2.393826,2.59817 -4.347227,4.42621 -4.343441,3.96336 0.0071,-0.87285 2.061509,-5.42329 4.749709,-10.61759 2.74071,-5.29577 5.957039,-10.92079 8.540235,-14.81786 7.98403,-12.04488 16.74094,-21.57338 27.49193,-29.91279 11.03994,-8.563528 23.3114,-15.290111 39.75775,-23.338424 6.35253,-3.108716 19.58141,-9.122969 24.40913,-11.056501 12.43012,-4.97834 11.69095,-5.608695 14.33541,5.642795 2.95589,12.576591 2.94146,28.96103 -0.0722,48.48241 -2.24898,14.56812 -5.33164,28.19361 -10.17013,43.36915 -5.02346,15.75575 -11.28997,31.36172 -20.86398,53.34292 -7.89181,18.11899 -12.33547,28.8968 -15.42321,37.19107 -3.01393,8.09599 -4.66369,13.67114 -6.61853,21.12252 -6.30782,24.04392 -7.53778,34.69292 -7.49203,62.02368 0.0246,14.69054 0.58924,28.20008 1.44132,34.50163 2.03508,15.05048 5.928,36.21283 8.28783,45.05945 1.10933,4.1586 2.01575,7.84249 2.01627,8.22965 5.3e-4,0.38718 -22.13343,-1.05868 -49.21271,-0.9684 -13.775228,0.0459 -25.606073,0.4946 -34.740608,0.8996 -8.901528,0.39466 -14.410391,0.68472 -14.411658,0.55654 z m 7.91601,-124.42859 c -0.01154,-1.48825 0.212148,-2.15278 0.496795,-1.47614 0.28468,0.67672 0.294131,1.89664 0.02096,2.70907 -0.273079,0.81215 -0.506203,0.25672 -0.517756,-1.23293 z M 40.281169,203.33437 C 27.6152,204.60395 20.009881,191.49011 25.575051,177.67641 c 2.664274,-6.61318 3.951376,-7.24335 2.805068,-1.73362 -1.381189,6.63867 0.849037,12.36986 5.144717,15.74449 4.321776,3.39513 10.694503,4.41047 17.711254,2.19996 3.514881,-1.10731 11.429095,-6.31774 14.362701,-9.42546 1.917485,-2.03128 1.872048,-1.92552 0.263322,1.34884 -1.579398,3.21467 -5.93185,7.95453 -10.336655,11.4092 -2.888835,2.26571 -11.512323,5.74048 -15.244289,6.11455 z"
         id="path100503"
         inkscape:original-d="m 40,470.67814 c 0,-0.17702 0.717301,-2.42702 1.594002,-5 L 43.188004,461 h 57.705106 57.70511 l 1.34222,3.75 c 0.73821,2.0625 1.55176,4.3125 1.80787,5 0.36935,0.99144 -12.17404,1.25 -60.64132,1.25 C 67.498145,471 40,470.85516 40,470.67814 Z m 12,-36.10598 c 0,-0.23531 1.133124,-4.62281 2.518054,-9.75 3.439853,-12.73478 7.078454,-32.8876 8.544039,-47.32216 1.123769,-11.06801 0.860179,-35.10368 -0.520915,-47.5 -0.90912,-8.16002 2.114455,5.98832 5.342633,25 4.660454,27.44676 6.360263,60.98846 3.472156,68.51475 C 70.858261,424.81175 75.425851,425 107.39301,425 127.52686,425 144,424.72559 144,424.39021 c 0,-0.33539 -2.24281,-3.06379 -4.98403,-6.06311 C 120.21014,397.75053 103.3976,357.38814 92.341561,306.27444 89.828645,294.65685 89.574865,291.59825 89.539208,272.5 89.5055,254.44581 89.823921,249.88682 91.809154,240 c 7.994951,-39.81628 32.202176,-85.79836 63.827466,-121.24147 2.97087,-3.32952 5.22418,-6.23107 5.00736,-6.44789 -0.21682,-0.21682 -3.14581,1.21844 -6.50886,3.18947 -17.87633,10.47703 -40.33626,30.92783 -68.890037,62.72755 C 82.910288,180.82787 81,182.53555 81,182.02251 c 0,-1.935 7.949676,-18.86555 12.860055,-27.38827 15.525885,-26.94755 33.979315,-45.68617 66.131515,-67.15354 7.42964,-4.960615 18.36858,-11.475517 24.30877,-14.47756 12.37451,-6.25381 11.69503,-6.467287 14.31331,4.49686 2.96401,12.411906 2.94908,28.61823 -0.0449,48.69094 -4.48756,30.08663 -12.23253,57.18364 -30.8144,107.80906 -15.52075,42.28556 -17.8205,49.10497 -21.75173,64.5 -6.23104,24.40125 -7.46718,34.06116 -7.48606,58.5 -0.0101,13.12738 0.51269,25.00482 1.34256,30.5 1.95547,12.94863 5.8264,31.72855 8.14385,39.5101 C 149.10135,430.69814 150,434.00461 150,434.35781 150,434.71102 127.95,435 101,435 74.05,435 52,434.80747 52,434.57216 Z M 61.157895,323 c 0,-1.375 0.226973,-1.9375 0.504386,-1.25 0.277412,0.6875 0.277412,1.8125 0,2.5 -0.277413,0.6875 -0.504386,0.125 -0.504386,-1.25 z M 42.123254,216.0455 c -13.000105,-3.25218 -20.76571,-19.42755 -15.205419,-31.67213 2.680118,-5.90201 4.0406,-6.31529 2.880287,-0.87494 -2.743756,12.86462 9.325547,26.57042 23.317898,26.47961 3.68208,-0.0239 11.216199,-3.08084 14.252801,-5.78303 1.861715,-1.65668 1.867799,-1.62269 0.269035,1.5033 -1.568561,3.06693 -5.811034,6.85418 -10.214883,9.11882 -2.995479,1.5404 -11.366028,2.21245 -15.299719,1.22837 z" />
      <path
         style="fill:#e1b50b;fill-opacity:1;stroke-width:0.99861"
         d="m 40.420585,468.05372 c 0.371333,-1.27896 1.060035,-3.44299 1.507323,-4.73632 0.274358,-0.7933 0.822478,-2.38443 0.822478,-2.38443 10.693283,-0.29977 22.988671,-0.62134 36.115173,-0.81133 12.05008,-0.17441 21.693821,-0.17642 21.693821,-0.17642 11.03772,-0.0166 22.72164,0.0792 36.16417,0.34387 12.05129,0.23725 21.68586,0.52489 21.68586,0.52489 0.53601,1.43202 1.60722,4.27792 1.60722,4.27792 0.88372,2.34338 1.60637,4.46911 1.60642,4.74445 4e-5,0.27535 -27.42546,-0.11004 -60.95797,-0.0803 -20.326793,0.018 -60.929391,0.65054 -60.929391,0.65054 -6.5e-5,2.2e-4 0.684961,-2.35309 0.684896,-2.35287 z m 11.553863,-39.48894 c 1.641514,-4.73701 3.386434,-15.11775 4.932699,-27.13455 1.539892,-11.96728 2.872142,-25.47562 3.667854,-35.90158 0.93391,-12.2367 1.690325,-41.12864 0.277592,-52.0709 -1.13093,-8.75956 2.523025,8.54305 5.612251,27.09276 2.63744,15.8369 4.430612,33.51525 5.145203,48.11411 0.715196,14.61125 0.344586,25.97591 -1.31472,29.64428 -0.473598,1.04702 -0.669725,4.67044 3.752302,7.85596 4.539096,3.26985 13.388551,5.85345 31.618221,5.93304 10.28815,0.0449 20.45783,-2.49751 27.72084,-5.1419 7.31456,-2.66316 11.87672,-5.50589 11.19782,-6.43442 -0.15401,-0.21065 -2.52893,-3.8406 -5.62499,-7.95708 -9.90145,-13.16483 -18.92126,-31.28484 -27.0824,-53.57459 -8.10242,-22.12938 -15.272696,-48.17852 -21.065238,-75.73905 -2.600321,-12.37216 -2.896292,-15.64318 -2.971584,-35.6028 -0.06959,-18.44687 0.276049,-23.18457 2.300733,-33.02899 4.229324,-20.56379 12.474319,-40.8032 24.085449,-58.80041 11.79077,-18.27565 26.13493,-33.0067 43.4424,-47.51239 2.2281,-1.86742 4.02208,-2.78956 4.01775,-2.03101 -0.004,0.75423 -0.71274,6.18952 -1.5758,12.04854 -2.05927,13.97956 -2.35297,32.03773 -0.57317,38.40771 1.585,5.6728 4.84172,9.30392 7.9008,8.69209 5.63496,-1.12699 12.60048,-8.2431 21.39114,-23.39945 8.77462,-15.12868 9.07928,-15.87261 8.43033,-10.71156 -1.56014,12.40743 -4.17846,25.75171 -9.54753,42.58274 -5.8153,18.22987 -13.10581,35.70715 -26.30682,64.7819 -8.48445,18.68668 -13.89438,34.29429 -17.33286,49.5164 -3.42872,15.17893 -4.8658,29.85534 -5.38406,47.14997 -0.58664,19.57644 0.58796,36.43932 3.9782,57.91867 1.84587,11.69475 5.16501,30.27512 6.86338,35.13751 0.37412,1.0711 -0.76329,1.31293 -10.34672,1.00035 -4.49065,-0.14646 -21.47697,-0.93415 -38.66114,-0.86932 -23.284757,0.0878 -35.571741,1.07321 -41.965292,1.22634 -6.393551,0.15312 -6.903468,-0.26657 -6.58264,-1.19237 z m 7.345836,-122.455 c 0.03836,-1.27175 0.274117,-1.58685 0.600791,-0.80103 0.295769,0.71146 0.267228,1.65521 -0.06314,2.09534 -0.33042,0.44018 -0.572382,-0.14285 -0.537652,-1.29431 0,0 3e-6,0 3e-6,0 z M 40.234443,203.35055 c -12.630712,1.25829 -20.213561,-11.8652 -14.664301,-25.67259 2.656922,-6.61081 3.940475,-7.2401 2.797253,-1.73113 -1.377423,6.63752 0.846454,12.37093 5.129994,15.74982 4.309474,3.39934 10.664216,4.42101 17.660883,2.21463 3.506057,-1.10562 11.395331,-6.31215 14.321828,-9.42126 1.911952,-2.03125 1.866846,-1.92582 0.262543,1.34898 -1.575077,3.21512 -5.91493,7.95444 -10.307309,11.4074 -2.881831,2.26548 -11.478272,5.7333 -15.200891,6.10415 z"
         id="path100502"
         sodipodi:nodetypes="sscccssscscssssssssssscssssssssssscsssssssssssss"
         inkscape:original-d="m 40.523159,468.75 c 0.384434,-1.2375 1.076692,-3.2625 1.538351,-4.5 L 42.900889,462 h 57.755251 57.75525 l 1.60411,4.02024 c 0.88226,2.21113 1.60411,4.23613 1.60411,4.5 0,0.26387 -27.40397,0.47976 -60.89771,0.47976 H 39.824189 Z m 11.887588,-36.5 c 3.36352,-8.42223 7.45135,-37.43333 9.256437,-55.8378 1.058469,-10.79202 2.086813,-36.6018 0.774431,-46.9122 -1.049495,-8.24509 2.438594,8.46374 5.323309,25.5 4.925321,29.08746 6.401224,62.82853 3.024968,69.1547 -0.949179,1.7785 -0.978283,12.9756 35.097608,12.9756 20.58698,0 40.1278,-10.01325 38.77934,-11.5925 -0.15296,-0.17914 -2.51129,-3.2845 -5.58065,-6.73397 C 119.52789,396.82336 103.28607,357.87972 92.154718,306.27444 89.648784,294.65685 89.395709,291.59825 89.360151,272.5 c -0.03362,-18.05419 0.283922,-22.61318 2.263639,-32.5 8.164206,-40.77247 32.13037,-85.79945 66.00054,-124 2.20694,-2.48911 3.98753,-3.8297 3.98462,-3 -0.003,0.825 -0.69662,6.9 -1.5416,13.5 -2.024,15.80909 -2.25996,35.56264 -0.49964,41.82605 1.58046,5.62349 4.8002,8.41011 7.83525,6.78127 5.64849,-3.0314 12.42962,-12.75305 21.24961,-30.46413 8.73871,-17.54785 9.05001,-17.95761 8.405,-12.64319 -3.11931,25.70073 -10.35617,55.36272 -35.56208,120.56216 -16.72603,43.26474 -21.38536,66.30729 -22.48771,97.63416 -0.62244,17.68832 0.48785,32.32724 3.80784,51.11629 1.77976,10.0723 5.10254,26.77087 6.76507,31.03108 0.37135,0.95158 -0.76522,1.29385 -10.31087,1.49248 C 132.24129,433.98242 120.4384,434 100.7891,434 54.447449,434 51.75082,433.9024 52.410747,432.25 Z m 8.568221,-109.83333 c 0.04785,-1.16495 0.284149,-1.4019 0.602488,-0.60417 0.288069,0.72187 0.25264,1.58438 -0.07873,1.91667 -0.331369,0.33229 -0.567061,-0.25834 -0.523761,-1.3125 z M 42.075944,216.0455 c -12.963984,-3.25218 -20.708012,-19.42755 -15.16317,-31.67213 2.672671,-5.90201 4.029373,-6.31529 2.872284,-0.87494 -2.736133,12.86462 9.299635,26.57042 23.253108,26.47961 3.671849,-0.0239 11.185035,-3.08084 14.213199,-5.78303 1.856542,-1.65668 1.862609,-1.62269 0.268288,1.5033 -1.564203,3.06693 -5.794888,6.85418 -10.186501,9.11882 -2.987156,1.5404 -11.334447,2.21245 -15.257208,1.22837 z" />
      <path
         style="fill:#006836;fill-opacity:1"
         d="m 40.544149,467.36775 c 0.912346,-2.72615 0.977102,-2.74274 1.430988,-4.05153 0.938203,-3.03698 2.807994,-9.17932 2.807994,-9.17932 10.441261,-0.23176 22.294051,-0.45137 35.106266,-0.48976 11.715856,-0.0351 21.092413,0.10921 21.092413,0.10921 10.52471,-0.28786 21.80047,-0.46421 34.62888,-0.46422 11.5399,-10e-6 20.76513,0.13589 20.76513,0.13589 1.34048,3.93262 4.01705,11.67252 4.01705,11.67252 0.82411,2.37152 1.61076,4.46737 1.61081,4.7426 4e-5,0.27524 -27.50166,-0.11439 -61.12764,-0.0873 -20.468366,0.0165 -61.353554,0.65437 -61.353554,0.65437 0.340847,-1.01162 0.681345,-2.02561 1.021663,-3.0425 z m 9.823719,-32.75003 c 0.348825,-1.03745 2.42749,-8.77332 2.765686,-10.34738 0.249789,-1.64703 0.748649,-4.95179 0.748649,-4.95179 8.792469,-0.82214 18.814332,-1.64103 29.629928,-2.15637 9.898606,-0.47165 17.825099,-0.52939 17.825099,-0.52939 8.61779,-0.24736 17.97745,-0.28213 28.48828,0.0343 9.49221,0.28574 17.07523,0.77077 17.07523,0.77077 0.48883,2.17251 1.46513,6.49363 1.46513,6.49363 0.34867,1.54098 1.9849,8.13136 2.33452,9.14297 0.2789,0.80695 -1.0659,1.1618 -8.07744,1.05613 -7.01154,-0.10567 -19.69689,-0.85006 -42.10027,-0.77359 -20.199541,0.0689 -37.279688,1.35165 -42.073778,1.65704 -7.002582,0.44608 -8.350358,0.40473 -8.081034,-0.39628 z"
         id="path100501"
         sodipodi:nodetypes="sscccssscssscccssss"
         inkscape:original-d="m 40.650941,468.09414 c 0.929536,-2.59694 0.994893,-2.60664 1.457839,-3.84414 l 2.876862,-8.6212 56.120868,0.76838 55.27789,-1.28736 4.00702,10.91042 c 0.82273,2.24016 1.60858,4.23613 1.60858,4.5 C 162,470.78411 134.51968,471 100.93261,471 H 39.610832 Z m 10.094029,-30.3869 c 0.336189,-0.8761 2.535424,-7.97624 2.867703,-9.30014 l 0.799238,-4.44954 47.262319,-0.34262 45.30424,-1.02191 1.44859,5.76722 c 0.33306,1.32601 1.97763,7.30247 2.31382,8.17857 0.55408,1.4439 -5.37014,1.70129 -49.98072,1.70129 -44.610585,0 -50.569268,0.91103 -50.01519,-0.53287 z" />
    </g>
  </g>
</svg>
